<svg width="114" height="85" viewBox="0 0 114 85" fill="none" xmlns="http://www.w3.org/2000/svg">
<path d="M48.8709 20.4446L56.9928 12.3227L65.1148 20.4446L56.9928 28.5665L48.8709 20.4446Z" fill="white"/>
<path d="M71.6123 13.947L67.5514 18.008L59.4294 9.88607L67.5514 1.76414C69.7942 -0.478672 73.4305 -0.478671 75.6733 1.76414L112.222 38.3128C114.465 40.5556 114.465 44.192 112.222 46.4348L75.6733 82.9835C73.4305 85.2263 69.7942 85.2263 67.5514 82.9835L59.4294 74.8615L67.5514 66.7396L71.6123 70.8006L100.039 42.3738L71.6123 13.947Z" fill="white"/>
<path d="M65.1148 64.303L56.9928 56.1811L48.8709 64.303L56.9928 72.4249L65.1148 64.303Z" fill="white"/>
<path d="M46.4343 22.8812L31.0027 38.3128C28.7599 40.5556 28.7599 44.192 31.0027 46.4348L46.4343 61.8664L54.5563 53.7445L43.1856 42.3738L54.5563 31.0031L46.4343 22.8812Z" fill="white"/>
<path fill-rule="evenodd" clip-rule="evenodd" d="M13.9466 42.373L42.3734 70.7998L70.8001 42.373L42.3734 13.9463L13.9466 42.373ZM1.76372 38.3121C-0.479085 40.5549 -0.479086 44.1912 1.76372 46.434L38.3124 82.9827C40.5552 85.2255 44.1915 85.2255 46.4343 82.9827L82.983 46.434C85.2259 44.1912 85.2259 40.5549 82.983 38.3121L46.4344 1.76339C44.1915 -0.479422 40.5552 -0.479424 38.3124 1.76339L1.76372 38.3121Z" fill="white"/>
<path fill-rule="evenodd" clip-rule="evenodd" d="M20.038 64.7084L28.1599 56.5864L42.3733 70.7998L70.8 42.373L78.922 50.495L46.4342 82.9827C44.1914 85.2255 40.5551 85.2255 38.3123 82.9827L20.038 64.7084Z" fill="#EB672F"/>
<path fill-rule="evenodd" clip-rule="evenodd" d="M59.4291 74.8608L67.551 66.7389L71.6119 70.7998L100.039 42.3731L108.161 50.495L75.6729 82.9827C73.4301 85.2256 69.7938 85.2256 67.551 82.9827L59.4291 74.8608Z" fill="#EB672F"/>
</svg>
